PathFileType	4	(X/Y/Z)	C:\Users\dbl\Desktop\LZH\BX\Trimmed_bx_y_5_1801.trc
DataRate	CameraRate	NumFrames	NumMarkers	Units	OrigDataRate	OrigDataStartFrame	OrigNumFrames
50.00	50.00	       6	43	mm	50.00	1	       330
Frame#	Time	Top.Head			R.Acromium			L.Acromium			Sternum			R.ASIS			L.ASIS			V.Sacral			R.Thigh.Upper			R.Thigh.Front			R.Thigh.Rear			R.Knee.Lat			R.Knee.Med			R.Shank.Upper			R.Shank.Front			R.Shank.Rear			R.Ankle.Lat			R.Midfoot.Lat			R.Toe.Lat			R.Toe.Tip			R.Toe.Med			R.Ankle.Med			R.Midfoot.Sup			R.Heel			L.Thigh.Upper			L.Thigh.Front			L.Thigh.Rear			L.Knee.Lat			L.Knee.Med			L.Shank.Upper			L.Shank.Front			L.Shank.Rear			L.Ankle.Lat			L.Midfoot.Lat			L.Toe.Lat			L.Toe.Tip			L.Toe.Med			L.Ankle.Med			L.Midfoot.Sup			L.Heel			origin1 front left			origin2 front right			origin 3 back right			origin 4 back leftt			
		X1	Y1	Z1	X2	Y2	Z2	X3	Y3	Z3	X4	Y4	Z4	X5	Y5	Z5	X6	Y6	Z6	X7	Y7	Z7	X8	Y8	Z8	X9	Y9	Z9	X10	Y10	Z10	X11	Y11	Z11	X12	Y12	Z12	X13	Y13	Z13	X14	Y14	Z14	X15	Y15	Z15	X16	Y16	Z16	X17	Y17	Z17	X18	Y18	Z18	X19	Y19	Z19	X20	Y20	Z20	X21	Y21	Z21	X22	Y22	Z22	X23	Y23	Z23	X24	Y24	Z24	X25	Y25	Z25	X26	Y26	Z26	X27	Y27	Z27	X28	Y28	Z28	X29	Y29	Z29	X30	Y30	Z30	X31	Y31	Z31	X32	Y32	Z32	X33	Y33	Z33	X34	Y34	Z34	X35	Y35	Z35	X36	Y36	Z36	X37	Y37	Z37	X38	Y38	Z38	X39	Y39	Z39	X40	Y40	Z40	X41	Y41	Z41	X42	Y42	Z42	X43	Y43	Z43	

1	0.000	-674.53656	284.47879	1838.93872	-641.65619	74.95187	1530.84705	-651.35870	465.51666	1511.48657	-549.67944	270.10492	1392.08813	-537.29498	150.14511	1058.45337	-552.85321	415.37427	1076.13696	-742.17487	262.31430	1015.20087	-563.39032	98.59959	893.11041	-521.49847	163.04956	844.21722	-614.56299	96.12032	746.33429	-642.08435	129.17252	603.98944	-629.62689	237.68407	562.54449	-681.07050	127.75542	540.85199	-597.20526	179.80394	544.18488	-720.60291	131.66841	474.67953	-685.79877	149.29164	214.33907	-613.72681	83.11469	167.66505	-568.86957	58.61407	164.69514	-491.35394	94.08433	162.26489	-529.29523	149.01917	166.15646	-630.42719	223.07002	218.77856	-589.81091	193.62692	169.11919	-715.15625	216.82509	169.44719	-584.05505	447.65735	876.01953	-516.56183	377.04160	836.76306	-608.39722	440.93451	749.09711	-644.32074	418.72000	624.93585	-618.04865	312.27020	577.57904	-654.77954	413.40787	562.59442	-605.57428	370.23492	539.90192	-708.26880	420.77426	512.46906	-678.70410	415.99286	212.66856	-582.63757	468.11502	165.82158	-542.28314	477.49368	159.48032	-481.58957	428.88394	163.85046	-523.94580	387.00186	177.69858	-642.91547	326.98648	207.66122	-593.92609	347.14325	168.98087	-732.49481	345.72583	164.30159	-443.44647	449.20486	147.08607	-450.28659	75.12018	145.02536	-806.30225	82.64172	142.57715	-799.88568	457.82101	145.21840	
2	0.020	-674.36169	284.71313	1838.93970	-641.68182	74.99805	1530.82434	-651.32922	465.57574	1511.47900	-549.67334	270.11435	1392.08716	-537.26642	150.21910	1058.40137	-552.77020	415.38147	1076.14954	-742.13538	262.28400	1015.23676	-563.35626	98.74923	893.12451	-521.53998	163.07664	844.21289	-614.48871	96.08788	746.45410	-642.04413	129.11282	603.94446	-629.51752	237.66579	562.39038	-681.02008	127.78160	540.85315	-597.14307	179.85596	544.26300	-720.64832	131.63063	474.69022	-685.78564	149.29558	214.35388	-613.76031	83.19295	167.65562	-568.91272	58.63369	164.71739	-491.35599	94.11288	162.21570	-529.29193	148.92787	166.07352	-630.46149	223.00487	218.70872	-589.90070	193.73810	169.00247	-715.16663	216.87355	169.43069	-583.98859	447.68167	876.06787	-516.49536	377.11267	836.73462	-608.39404	441.00626	749.04523	-644.33173	418.72144	624.86371	-618.09521	312.28314	577.54633	-654.77643	413.38226	562.60962	-605.54791	370.23590	539.86987	-708.19379	420.82205	512.52448	-678.70270	415.99506	212.67035	-582.59308	468.09058	165.76878	-542.28589	477.45651	159.53464	-481.59000	428.75720	163.80276	-523.93280	386.97049	177.70049	-642.95386	327.03494	207.60533	-594.01111	347.09979	168.90735	-732.45111	345.70056	164.25282	-443.44327	449.16348	147.08357	-450.35895	75.15855	144.91876	-806.24554	82.58344	142.66400	-799.88867	457.84521	145.17273	
3	0.040	-674.20801	284.89685	1838.92664	-641.68158	75.03713	1530.79810	-651.30621	465.62173	1511.47131	-549.65240	270.14273	1392.09033	-537.23895	150.26726	1058.38904	-552.69177	415.38733	1076.16272	-742.08350	262.27084	1015.24139	-563.30994	98.85299	893.11188	-521.56110	163.09676	844.19250	-614.44977	96.07883	746.49030	-641.96167	129.11980	603.89276	-629.41058	237.64955	562.27905	-680.94641	127.80443	540.85229	-597.06793	179.89568	544.30737	-720.68988	131.60625	474.67719	-685.78424	149.30211	214.36768	-613.78314	83.24490	167.64464	-568.94501	58.64596	164.73401	-491.35739	94.14067	162.19456	-529.32501	148.88158	166.01726	-630.48376	222.96344	218.66533	-589.98718	193.82809	168.93942	-715.15546	216.91707	169.41917	-583.94690	447.69763	876.10016	-516.53949	376.99225	836.61475	-608.36230	441.11972	749.07343	-644.31647	418.71750	624.80640	-618.11383	312.28827	577.52576	-654.76428	413.36560	562.62195	-605.52191	370.22824	539.83649	-708.13550	420.84521	512.55780	-678.70258	415.99524	212.67041	-582.57770	468.07681	165.75244	-542.29852	477.43005	159.56140	-481.59137	428.67822	163.76688	-523.92072	386.95490	177.69147	-642.99139	327.08212	207.55107	-594.04211	347.09567	168.87856	-732.42169	345.68747	164.21925	-443.43222	449.13153	147.07684	-450.40350	75.18163	144.85548	-806.22943	82.55914	142.69608	-799.88580	457.86404	145.15523	
4	0.060	-674.07043	285.02377	1838.89404	-641.64148	75.08598	1530.75464	-651.27490	465.65155	1511.45715	-549.61017	270.19733	1392.10083	-537.20599	150.28171	1058.41663	-552.62262	415.38644	1076.17554	-742.01013	262.27679	1015.20502	-563.26196	98.89587	893.06897	-521.55133	163.11061	844.14929	-614.43939	96.08475	746.46326	-641.83600	129.18835	603.83435	-629.31763	237.64015	562.21564	-680.85358	127.82686	540.84174	-596.98993	179.91687	544.30963	-720.70129	131.60138	474.64130	-685.79156	149.30556	214.37521	-613.78735	83.26525	167.62126	-568.95715	58.65150	164.74382	-491.35684	94.16384	162.19962	-529.38739	148.88017	165.99896	-630.47943	222.96373	218.65599	-590.04919	193.89000	168.93225	-715.12994	216.94023	169.41217	-583.92889	447.70316	876.10944	-516.68536	376.65582	836.38318	-608.30585	441.25845	749.18286	-644.27051	418.70685	624.77338	-618.10883	312.28668	577.50836	-654.73676	413.36646	562.63232	-605.50275	370.20996	539.80945	-708.09540	420.84601	512.57178	-678.70563	415.99023	212.66605	-582.58789	468.07498	165.76627	-542.31506	477.42514	159.55122	-481.59314	428.64804	163.75108	-523.91144	386.95386	177.67595	-643.00696	327.10138	207.52934	-594.02777	347.11319	168.88916	-732.40771	345.68994	164.20462	-443.41684	449.12598	147.06226	-450.41049	75.18838	144.85358	-806.24072	82.58016	142.67569	-799.87805	457.87888	145.16420	
5	0.080	-673.93774	285.11670	1838.85376	-641.56390	75.16730	1530.68372	-651.22845	465.67401	1511.43274	-549.55310	270.27032	1392.11658	-537.16028	150.28296	1058.44617	-552.54688	415.36914	1076.18567	-741.92993	262.29736	1015.14331	-563.23071	98.89665	893.01904	-521.51355	163.12506	844.09851	-614.43024	96.08244	746.44873	-641.70496	129.25143	603.78204	-629.25995	237.64490	562.18469	-680.76666	127.85076	540.82135	-596.92889	179.92889	544.29303	-720.67957	131.61461	474.60010	-685.79755	149.30270	214.37053	-613.77271	83.26530	167.58725	-568.94836	58.65247	164.75044	-491.35327	94.17413	162.20952	-529.44366	148.89873	166.00273	-630.45227	222.99698	218.66919	-590.05261	193.91301	168.94029	-715.11176	216.92706	169.41109	-583.91016	447.70062	876.09406	-516.83319	376.27939	836.13123	-608.24207	441.37976	749.29541	-644.21448	418.68924	624.76367	-618.09589	312.28281	577.48883	-654.69452	413.38480	562.64105	-605.49359	370.18805	539.79700	-708.07239	420.84491	512.58289	-678.71381	415.97702	212.65500	-582.59998	468.07745	165.78082	-542.32037	477.44025	159.52370	-481.59396	428.63925	163.75487	-523.90527	386.95642	177.66380	-642.98602	327.07410	207.56178	-594.02039	347.10806	168.90253	-732.40131	345.70010	164.20659	-443.40939	449.15186	147.04008	-450.38492	75.18745	144.90198	-806.24957	82.62926	142.63802	-799.86639	457.89746	145.18568	
6	0.100	-673.81879	285.19305	1838.83118	-641.47070	75.27305	1530.59802	-651.16241	465.70523	1511.40515	-549.49860	270.34241	1392.12756	-537.10150	150.29738	1058.44324	-552.44073	415.32919	1076.18689	-741.86914	262.32571	1015.08282	-563.22260	98.88197	892.98395	-521.45245	163.13918	844.07092	-614.40704	96.05949	746.48712	-641.60803	129.25288	603.75067	-629.24274	237.65381	562.18384	-680.71039	127.87285	540.80359	-596.89227	179.94603	544.28754	-720.65802	131.63875	474.56931	-685.79376	149.29288	214.35168	-613.75964	83.25983	167.56818	-568.92725	58.65369	164.75868	-491.34708	94.16869	162.20718	-529.47321	148.92567	165.99973	-630.42773	223.02937	218.68655	-590.00726	193.88414	168.94392	-715.11359	216.88193	169.41411	-583.86523	447.69281	876.05396	-516.90002	376.07391	835.98267	-608.16162	441.48660	749.32050	-644.17316	418.66800	624.76959	-618.08746	312.28033	577.48041	-654.65186	413.40106	562.64801	-605.48480	370.16898	539.80078	-708.06946	420.85419	512.60120	-678.72491	415.95935	212.64081	-582.60046	468.07684	165.78357	-542.31189	477.46118	159.50272	-481.59198	428.63577	163.76971	-523.89850	386.95370	177.65747	-642.94757	327.02457	207.62009	-594.03796	347.08002	168.90158	-732.39685	345.70694	164.22044	-443.41574	449.18008	147.01942	-450.34000	75.18847	144.97069	-806.25739	82.67699	142.59845	-799.85303	457.91415	145.20508	
